<?xml version="1.0" standalone="no"?>
<!DOCTYPE svg PUBLIC "-//W3C//DTD SVG 20010904//EN"
 "http://www.w3.org/TR/2001/REC-SVG-20010904/DTD/svg10.dtd">
<svg version="1.0" xmlns="http://www.w3.org/2000/svg"
 width="512.000000pt" height="512.000000pt" viewBox="0 0 512.000000 512.000000"
 preserveAspectRatio="xMidYMid meet">

<g transform="translate(0.000000,512.000000) scale(0.100000,-0.100000)"
fill="#000000" stroke="none">
<path d="M2076 4944 c-14 -13 -16 -53 -16 -282 l0 -267 -117 -40 c-65 -21
-165 -63 -223 -92 l-105 -53 -190 190 c-117 117 -198 190 -210 190 -25 0 -673
-645 -682 -679 -5 -20 21 -50 185 -215 l191 -191 -53 -106 c-28 -58 -70 -158
-91 -222 l-40 -117 -267 0 c-229 0 -269 -2 -282 -16 -14 -14 -16 -71 -16 -484
0 -413 2 -470 16 -484 13 -14 53 -16 282 -16 l267 0 40 -117 c21 -64 63 -164
91 -222 l53 -106 -190 -190 c-116 -117 -189 -198 -189 -210 0 -25 645 -673
679 -682 20 -5 50 21 215 185 l191 191 108 -53 c59 -29 159 -71 222 -92 l115
-39 0 -267 c0 -229 2 -269 16 -282 14 -14 71 -16 484 -16 413 0 470 2 484 16
14 13 16 53 16 283 l0 268 48 13 c69 20 256 96 331 136 l66 34 191 -191 c165
-165 195 -191 215 -186 34 9 679 657 679 682 0 12 -73 93 -189 210 l-190 190
54 109 c29 61 71 161 92 223 l38 113 267 0 c229 0 269 2 282 16 14 14 16 71
16 484 0 413 -2 470 -16 484 -13 14 -53 16 -282 16 l-267 0 -38 113 c-21 62
-63 162 -92 223 l-54 109 191 191 c164 165 190 195 185 215 -9 34 -657 679
-682 679 -12 0 -93 -73 -210 -190 l-190 -190 -75 39 c-81 43 -245 109 -322
130 l-48 14 0 268 c0 230 -2 270 -16 283 -14 14 -71 16 -484 16 -413 0 -470
-2 -484 -16z m744 -1213 c352 -80 651 -315 814 -639 84 -168 121 -329 121
-532 0 -157 -12 -236 -56 -372 -58 -179 -154 -335 -293 -474 -171 -170 -371
-280 -606 -330 -106 -23 -352 -26 -455 -5 -494 98 -868 472 -966 966 -21 103
-18 349 5 455 51 235 161 437 330 606 179 178 404 296 636 334 41 6 82 13 90
15 42 11 302 -6 380 -24z"/>
<path d="M2406 3650 c-237 -38 -443 -140 -611 -305 -166 -162 -272 -356 -316
-580 -20 -99 -18 -330 4 -427 93 -430 425 -762 855 -855 97 -22 328 -24 427
-4 224 44 418 150 580 316 420 431 420 1099 0 1530 -158 162 -341 264 -560
311 -85 19 -298 26 -379 14z m359 -380 c192 -60 359 -194 442 -355 69 -134 88
-210 88 -355 0 -145 -19 -222 -88 -355 -58 -111 -181 -234 -292 -292 -133 -69
-210 -88 -355 -88 -103 0 -138 4 -200 24 -313 97 -519 354 -537 671 -15 249
110 506 310 642 81 55 188 103 272 122 98 22 267 15 360 -14z"/>
<path d="M2420 3184 c-111 -23 -224 -86 -311 -173 -251 -252 -252 -650 0 -901
253 -252 651 -253 901 -1 253 254 253 648 0 902 -155 156 -374 220 -590 173z"/>
</g>
</svg>
